# xmcd
#
# Track frame offsets:
#	150
#	17620
#	38926
#	60472
#	79045
#	102453
#	122614
#	148471
#	170954
#	188878
#
# Disc length: 2774 seconds
#
# Revision: 1
# Processed by: cddbd v1.5PL3 Copyright (c) Steve Scherf et al.
# Submitted via: audiograbber 1.82.01
#
DISCID=8d0ad40a
DTITLE=Saber El Rouba3i - Sharee El Gharam
DYEAR=1900
DGENRE=
TTITLE0=Barcha
TTITLE1=Kolan 3ala Laylah
TTITLE2=Share3 El Gharam
TTITLE3=Balligh E3tizari
TTITLE4=Feynak Ya Omri
TTITLE5=Walla MA Testahel
TTITLE6=Lamlamti Awraki
TTITLE7=Ma S3ebtech 3alek
TTITLE8=El Ab
TTITLE9=Yazzini Minno
EXTD=
EXTT0=
EXTT1=
EXTT2=
EXTT3=
EXTT4=
EXTT5=
EXTT6=
EXTT7=
EXTT8=
EXTT9=
PLAYORDER=
